<?xml version="1.0" encoding="UTF-8"?>
<svg id="Layer_1" data-name="Layer 1" xmlns="http://www.w3.org/2000/svg" viewBox="0 0 28 26">
  <defs>
    <style>
      .cls-1 {
        fill-rule: evenodd;
      }
    </style>
  </defs>
  <path d="M6,4c0-.55.45-1,1-1h4c.55,0,1,.45,1,1s-.45,1-1,1h-4c-.55,0-1-.45-1-1Z"/>
  <path d="M4,5c.55,0,1-.45,1-1s-.45-1-1-1-1,.45-1,1,.45,1,1,1Z"/>
  <path d="M10.29,14.71c-.39-.39-.39-1.02,0-1.41l3-3c.39-.39,1.02-.39,1.41,0l3,3c.39.39.39,1.02,0,1.41-.39.39-1.02.39-1.41,0l-1.29-1.29v4.59c0,.55-.45,1-1,1s-1-.45-1-1v-4.59l-1.29,1.29c-.39.39-1.02.39-1.41,0Z"/>
  <path d="M19,22c.55,0,1-.45,1-1s-.45-1-1-1h-10c-.55,0-1,.45-1,1s.45,1,1,1h10Z"/>
  <path class="cls-1" d="M3,0C1.34,0,0,1.34,0,3v20c0,1.66,1.34,3,3,3h22c1.66,0,3-1.34,3-3V3c0-1.66-1.34-3-3-3H3ZM26,6v-3c0-.55-.45-1-1-1H3c-.55,0-1,.45-1,1v3h24ZM2,8h24v15c0,.55-.45,1-1,1H3c-.55,0-1-.45-1-1v-15Z"/>
</svg>