<?xml version="1.0" encoding="UTF-8"?>
<svg id="Layer_1" data-name="Layer 1" xmlns="http://www.w3.org/2000/svg" viewBox="0 0 100 89.88">
  <path d="M99.97,26.99c.06-.48,0-.96-.14-1.42-.83-5.04-5.19-8.91-10.46-8.91h-15.9c-.92-11.64-8.09-16.66-23.46-16.66s-22.54,5.03-23.46,16.66h-15.9c-5.27,0-9.63,3.87-10.46,8.91-.15.45-.21.94-.14,1.42,0,.1-.03.2-.03.31v51.95c0,5.86,4.77,10.63,10.64,10.63h78.73c5.86,0,10.64-4.77,10.64-10.63V27.3c0-.11-.03-.21-.03-.31ZM50,8.34c12.91,0,14.87,3.5,15.17,8.32h-30.34c.3-4.82,2.26-8.32,15.17-8.32ZM10.64,22.92h78.73c1.99,0,3.65,1.34,4.18,3.15l-8.49,14.77c-1.51,2.63-5.5,4.94-8.53,4.94h-15.77v-1.64c0-3.79-3.09-6.88-6.88-6.88h-7.77c-3.79,0-6.88,3.09-6.88,6.88v1.64h-15.76c-3.04,0-7.02-2.31-8.54-4.94l-8.49-14.77c.53-1.82,2.2-3.15,4.18-3.15ZM54.51,44.14v11.58c0,.34-.28.62-.62.62h-7.77c-.34,0-.62-.28-.62-.62v-11.58c0-.34.28-.62.62-.62h7.77c.34,0,.62.28.62.62ZM89.36,83.62H10.64c-2.41,0-4.38-1.96-4.38-4.38v-40.96l3.26,5.67c2.6,4.53,8.73,8.08,13.96,8.08h15.76v3.69c0,3.79,3.09,6.88,6.88,6.88h7.77c3.79,0,6.88-3.09,6.88-6.88v-3.69h15.76c5.22,0,11.35-3.55,13.96-8.08l3.26-5.67v40.96c0,2.41-1.97,4.38-4.39,4.38Z"/>
</svg>