<?xml version="1.0" encoding="UTF-8"?>
<svg id="Layer_1" data-name="Layer 1" xmlns="http://www.w3.org/2000/svg" viewBox="0 0 28.44 23.28">
  <path d="M18.99,20.69c0,.47-.04.94-.12,1.41-.09.55.28,1.07.83,1.17s1.07-.28,1.17-.83c.1-.58.15-1.16.15-1.74,0-4.44-2.81-8.39-7-9.87,2.66-1.97,3.22-5.73,1.24-8.39C13.29-.24,9.53-.79,6.87,1.18s-3.22,5.73-1.24,8.39c.35.47.77.89,1.24,1.24C2.75,12.34,0,16.27,0,20.66c0,.59.06,1.17.16,1.75.08.49.51.84,1,.83h.17c.54-.09.91-.61.82-1.15,0,0,0,0,0,0-.08-.47-.13-.94-.13-1.41,0-4.69,3.81-8.5,8.5-8.5s8.5,3.81,8.5,8.5l-.03.02ZM10.44,2.04c2.21,0,4,1.79,4,4s-1.79,4-4,4-4-1.79-4-4,1.79-4,4-4Z"/>
  <path d="M28.44,5.04c0-.55-.45-1-1-1h-3V1.04c0-.55-.45-1-1-1s-1,.45-1,1v3h-3c-.55,0-1,.45-1,1s.45,1,1,1h3v3c0,.55.45,1,1,1s1-.45,1-1v-3h3c.55,0,1-.45,1-1Z"/>
</svg>