<?xml version="1.0" encoding="UTF-8"?>
<svg id="Layer_1" data-name="Layer 1" xmlns="http://www.w3.org/2000/svg" viewBox="0 0 96.01 56.35">
  <path d="M14.51,29.18c-1.81,2.11-1.17,3.17-3.99,1.16l-7.44-5.15c-1.14-.79-3.67-1.86-2.95-3.35.66-1.18,1.4-2.33,2.2-3.42L13.22,1.57c.34-.53.65-1.36,1.29-1.57.76.18,1.46.55,2.04,1.08l2.8,1.88c2.4,1.6,4.85,3.16,7.21,4.81.73.51.96.78.6,1.69,1.79,2.51,4.38,1.05,6.67.33,4.61-1.46,8.04-.54,12.46-1.54,8.83-2.01,9.02,1.02,16.32,2.75,3.05.72,3.91-.36,6.37-1.88-.75-1.76,1.48-2.43,2.8-3.22l7.47-4.59c.82-.51,2.2-1.65,2.98-.48,1.05,1.59,1.98,3.29,2.98,4.91l6.68,10.92c.91,1.5,3.63,5.51,4.12,6.88-.45,1.46-2.5,2.22-3.71,2.96-3.08,1.92-6.25,3.71-9.31,5.66-.35-.58-.74-1.13-1.12-1.68-2.59,1.67-5.26,3.21-7.79,4.99l.09.19h0c.74,1.3.9,2.85.43,4.27-.64,1.64-2.12,2.8-3.87,3.04.25,3.64-2.16,6.4-5.97,5.42-.88,3.7-3.89,4.92-7.23,3.42h0c-.22,1.9-1.61,3.46-3.48,3.9-2.29.48-3.82-.75-5.63-1.93-1.46,2.64-4.36,3.61-6.56,1.26-2.77,2.72-7.2.91-7.95-2.65h-.48s0,0,0,0c-1.29.04-2.54-.45-3.46-1.36-.92-.91-1.42-2.16-1.39-3.45-3.41-.17-5.2-2.17-5.08-5.56-3.17-2.19-5.79-4.59-3.45-8.67h0c-1.95-1.25-3.81-2.65-5.57-4.17h0ZM15.17,3.34c-.6.74-1.11,1.57-1.64,2.38l-2.81,4.32c-2.61,3.99-5.31,7.95-7.82,12,3.11,2.06,6.04,4.16,9.06,6.31.87-1.62,2-3.15,3-4.69l5.17-7.91h0c1.26-2.16,2.63-4.26,4.11-6.28-2.88-2.26-5.91-4.3-9.09-6.12h0ZM80.75,3.34c-1.64,1.07-7.89,5.12-9.07,5.43h0c.7,1.48,1.51,2.89,2.45,4.23l4.33,7.12c.63,1.04,4.86,8.27,5.25,8.58l.09-.04c2.85-1.73,6.26-3.88,9.2-5.43-1.13-2.08-2.52-4.06-3.77-6.08l-5.69-9.36c-.4-.65-2.53-4.3-2.78-4.46h0ZM50.59,10.09c-1.79.21-3.55.55-5.29,1.01-1.65.37-2.2.25-3.33,1.58l-4.32,5.18c-1.38,1.8-2.96,3.46-4.69,4.93,4.29,1.47,6.34-.44,9.27-2.66,1.97-1.49,5.56-3,8.02-2.18,2.06.68,4.52,2.98,6.28,4.27l5.6,4.12h0c1.05.66,2.03,1.44,2.91,2.32,1.54.65,5.64,3.88,7.15,5.04,2.68-1.89,5.52-3.6,8.29-5.36-3.52-5.62-6.81-11.39-10.34-17-8.9,6.36-12.74-2.06-19.54-1.26h0ZM38.78,11.34c-5.19.82-8.49,3.69-13.06.45-3.35,5.07-6.59,10.23-9.99,15.27,2,1.46,4.08,2.87,6.01,4.43,2.46-1.24,5.46-.45,6.99,1.85,1.38-.85,3.09-1,4.6-.4,1.52.6,2.66,1.87,3.09,3.44,3.48-.02,6.13,2.44,5.64,6.04h0c1.42.23,2.66,1.08,3.39,2.32.73,1.24.88,2.73.4,4.09,1.29.94,6.02,4.71,7.49,4.47.76-.1,1.41-.61,1.68-1.33.28-.71.14-1.53-.35-2.11-1.34-1.45-4.96-3.13-5.83-4.22h0c-.27-.34-.35-.79-.2-1.2.14-.41.48-.71.91-.8,1.17-.21,6.83,4.2,8.05,5.02.82.55,1.64,1.47,2.7,1.35,1.17-.19,2.02-1.23,1.97-2.42-.2-1.24-6.56-4.93-7.82-5.77-1.97-1.37-.51-3.14.8-2.58h0c.76.42,1.48.91,2.15,1.45,2.38,1.62,5.16,3.61,7.6,5.05h0c1.01.59,2.3.29,2.95-.69.65-.97.43-2.28-.5-2.99-1.8-1.41-4.16-2.97-6.05-4.25h0c-1-.59-1.96-1.26-2.87-2-.48-.42-.57-1.12-.23-1.66.34-.53,1.02-.73,1.6-.47,2.63,1.37,7.99,6.26,10.03,6.67.63.11,1.28-.08,1.77-.5.48-.43.75-1.04.73-1.68-.11-1.78-2.27-2.86-3.53-3.8-2.62-1.95-5.31-3.8-7.94-5.74l-7.87-5.76c-1.2-.86-3.14-2.84-4.72-2.68-3.3.32-4.64,2.5-6.91,3.88-3.22,1.96-7.89,2.54-11,.03-1.56-1.26,0-2.32.95-3.22h0c3.02-3,5.84-6.2,8.45-9.55-.36,0-.71-.02-1.07,0h0ZM24.26,33.52c-.76.05-1.47.41-1.95,1-.48.59-.69,1.36-.57,2.11.24,1.34,1.84,2.17,2.87,2.9.42-.06,1.93-2.78,2.12-3.27.58-1.49-1.13-2.75-2.48-2.74h0ZM31.44,35.05c-.78.11-1.46.59-1.82,1.3l-2.22,3.61c-.53.73-.98,1.52-1.34,2.35-.55,1.61,1.11,2.79,2.54,2.75,1.56-.42,3.33-4.17,4.22-5.62.54-.88,1.3-1.62,1.03-2.73h0c-.36-1.02-1.33-1.68-2.41-1.66ZM37.09,38.95c-1.71.3-3.3,3.74-4.18,5.18h0c-.67.95-1.26,1.95-1.75,3-.58,1.48.96,2.75,2.34,2.69,1.72-.36,3.53-4.22,4.5-5.73.59-.91,1.78-2.02,1.53-3.2-.32-1.09-1.29-1.87-2.43-1.93h0ZM40.97,45.05c-1.3.36-3.47,4.41-4.21,5.68h0c-.38.73-.29,1.61.21,2.26.5.65,1.34.95,2.14.76,1.46-.46,4.89-5.77,4.45-7.12h0c-.12-.56-.47-1.05-.96-1.35-.49-.3-1.08-.38-1.63-.23h0ZM44.46,51.15c-.34.57-.73,1.13-1.04,1.71.51.73.93,1.09,1.83.89h0c.48-.37.88-.84,1.14-1.39-.64-.42-1.28-.83-1.94-1.22h0Z"/>
</svg>