<?xml version="1.0" encoding="UTF-8"?>
<svg id="Layer_1" data-name="Layer 1" xmlns="http://www.w3.org/2000/svg" viewBox="0 0 79.24 99.98">
  <path d="M73.57,31.11h-4.83v-7.4c0-3.12-2.54-5.66-5.66-5.66H27.5l-.53-.53,2.26-2.26c2.22-2.23,2.22-5.84,0-8.07-2-1.9-5.05-2.15-7.34-.6l-4.93-4.93c-2.23-2.2-5.83-2.2-8.05.03-2.22,2.22-2.23,5.82-.03,8.05l4.93,4.93c-.71.99-1.08,2.18-1.05,3.4h-7.09c-3.13,0-5.66,2.54-5.66,5.66v57.41c0,3.12,2.54,5.66,5.66,5.66h4.71v7.52c0,3.13,2.54,5.67,5.67,5.67h57.52c3.13,0,5.67-2.54,5.67-5.67v-57.52c0-3.13-2.54-5.67-5.67-5.68h0ZM23.36,9.39c1.01-1.01,2.64-1.01,3.66,0,1.01,1.01,1.01,2.65,0,3.66l-6.73,6.73c-1.02.98-2.64.98-3.66,0-1.01-1.01-1.01-2.64,0-3.66l6.74-6.73ZM11.09,7.51c-1.01-1.01-1.01-2.65,0-3.66,1.01-1.01,2.65-1.01,3.66,0l4.86,4.86-3.66,3.66-4.86-4.86ZM5.66,83.66c-1.4,0-2.54-1.14-2.54-2.54V23.71c0-1.4,1.14-2.54,2.54-2.54h8.09c.96,1.4,2.49,2.3,4.18,2.46,1.69.16,3.36-.45,4.56-1.65l.82-.82h2.89s6.18,6.18,6.18,6.18c.61.61,1.6.61,2.21,0s.61-1.6,0-2.21l-3.97-3.96h32.46c1.4,0,2.54,1.14,2.54,2.54v57.41c0,1.4-1.13,2.54-2.54,2.54H5.66ZM76.12,94.31c0,1.41-1.14,2.55-2.55,2.55H16.05c-1.41,0-2.55-1.14-2.55-2.55v-7.52h49.57c3.12,0,5.66-2.54,5.66-5.66v-46.89h4.83c1.41,0,2.55,1.14,2.55,2.55v57.52ZM58.13,36.02c0,.41-.16.81-.46,1.11-.29.29-.69.46-1.1.46H12.18c-.42,0-.83-.15-1.13-.45s-.47-.7-.47-1.12.17-.83.47-1.12.71-.45,1.13-.44h44.39c.41,0,.81.16,1.11.46.29.29.46.69.46,1.11h0ZM58.13,44.89c0,.41-.16.81-.46,1.11s-.69.46-1.11.46H12.18c-.42.01-.83-.15-1.13-.44-.3-.3-.47-.7-.47-1.12s.17-.82.47-1.12c.3-.3.71-.46,1.13-.45h44.39c.41,0,.81.16,1.11.46.29.29.46.69.46,1.11h0ZM58.13,53.76c0,.41-.16.81-.46,1.11s-.69.46-1.11.46H12.18c-.42.01-.83-.15-1.13-.44-.3-.29-.47-.7-.47-1.12s.17-.82.47-1.12c.3-.29.71-.45,1.13-.45h44.39c.41,0,.81.16,1.11.46s.46.69.46,1.11h0ZM58.13,62.63c0,.42-.16.81-.46,1.11-.29.29-.69.46-1.11.46H12.18c-.42,0-.83-.15-1.13-.45-.3-.29-.47-.7-.47-1.12s.17-.83.47-1.12c.3-.29.71-.45,1.13-.44h44.39c.41,0,.81.16,1.11.46.29.29.46.69.46,1.1h0ZM58.13,71.5h0c0,.42-.16.82-.46,1.11-.29.29-.69.46-1.11.46H12.18c-.42,0-.83-.15-1.13-.45s-.47-.7-.47-1.12.17-.83.47-1.12.71-.45,1.13-.44h44.39c.41,0,.81.16,1.11.46s.46.69.46,1.11h0Z"/>
</svg>