<?xml version="1.0" encoding="UTF-8"?>
<svg id="Layer_1" data-name="Layer 1" xmlns="http://www.w3.org/2000/svg" viewBox="0 0 96.1 96.1">
  <defs>
    <style>
      .cls-1 {
        fill-rule: evenodd;
      }
    </style>
  </defs>
  <path class="cls-1" d="M56.88,33.31V15.32h-9.13c-2.11,0-3.84-1.73-3.84-3.85V2.35S3.84,2.35,3.84,2.35c-.83,0-1.5.68-1.5,1.5v74.81c0,.83.67,1.5,1.5,1.5h43.52c-8.58-4.07-14.08-12.72-14.08-22.26,0-13.19,10.42-24.07,23.6-24.6h0ZM57.89,40.11c9.84,0,17.78,7.96,17.78,17.8s-7.95,17.8-17.78,17.8-17.78-7.97-17.78-17.8,7.95-17.8,17.78-17.8ZM57.89,37.76c11.12,0,20.13,9.03,20.13,20.14s-9.01,20.15-20.13,20.15-20.13-9.03-20.13-20.15,9.01-20.14,20.13-20.14ZM55.78,82.43c-.12.05-.26.07-.4.07H3.84c-2.11,0-3.84-1.73-3.84-3.85V3.85C0,1.73,1.73,0,3.84,0h41.24c.3,0,.6.11.83.34l12.96,12.97c.22.21.36.51.36.84v19.17c13.04.7,23.27,11.52,23.27,24.58,0,5.62-1.89,10.81-5.06,14.95l3.12,3.12c1.75-.3,3.59.24,4.91,1.56l8.99,8.98c1.09,1.09,1.64,2.54,1.64,3.97,0,3.1-2.51,5.61-5.61,5.61-1.43,0-2.87-.55-3.96-1.64l-8.99-8.98c-1.31-1.31-1.86-3.16-1.56-4.91l-3.12-3.12c-4.75,3.65-10.77,5.52-17.07,4.99h0ZM75.92,74.65c-.41.44-.83.87-1.27,1.28l2.3,2.3c.36-.5.78-.91,1.27-1.27l-2.3-2.3h0ZM57.89,35.63c12.31,0,22.26,9.97,22.26,22.27s-9.96,22.28-22.26,22.28-22.26-9.97-22.26-22.28,9.96-22.27,22.26-22.27ZM78.24,81.51c0,.85.32,1.68.95,2.31l8.98,8.99c2.02,2.02,5.58.62,5.58-2.32,0-.85-.32-1.68-.95-2.31l-8.98-8.99c-2.02-2.02-5.58-.63-5.58,2.32h0ZM12.05,28.8c-.65,0-1.17-.52-1.17-1.17s.52-1.17,1.17-1.17h35.13c.65,0,1.17.52,1.17,1.17s-.52,1.17-1.17,1.17H12.05ZM12.05,56.05c-.65,0-1.17-.52-1.17-1.17s.52-1.17,1.17-1.17h17.88c.65,0,1.17.52,1.17,1.17s-.52,1.17-1.17,1.17H12.05ZM12.05,42.43c-.65,0-1.17-.52-1.17-1.17s.52-1.17,1.17-1.17h23.17c.65,0,1.17.52,1.17,1.17s-.52,1.17-1.17,1.17H12.05ZM55.22,12.98h-7.47c-.83,0-1.5-.68-1.5-1.5v-7.47s8.98,8.97,8.98,8.97h0Z"/>
</svg>