<?xml version="1.0" encoding="UTF-8"?>
<svg id="Layer_1" data-name="Layer 1" xmlns="http://www.w3.org/2000/svg" viewBox="0 0 75 75">
  <path d="M31.25,0C14.02,0,0,14.02,0,31.25s14.02,31.25,31.25,31.25c5.73,0,11.09-1.56,15.72-4.26l14.67,14.68c1.34,1.33,3.14,2.08,5.03,2.08s3.7-.75,5.03-2.08l1.22-1.22c1.33-1.33,2.08-3.14,2.08-5.03s-.75-3.7-2.08-5.03l-14.68-14.67c2.7-4.62,4.26-9.99,4.26-15.72C62.5,14.02,48.48,0,31.25,0ZM31.25,4.17c14.98,0,27.08,12.1,27.08,27.08s-12.1,27.08-27.08,27.08S4.17,46.23,4.17,31.25,16.27,4.17,31.25,4.17Z"/>
  <path d="M39.58,20.83c-1.15,0-2.08.93-2.08,2.09,0,.55.22,1.08.61,1.47s.92.61,1.47.61h3.3l-9.55,9.55-6.86-6.86c-.81-.82-2.13-.82-2.95,0l-10.42,10.41c-.81.82-.81,2.13,0,2.95s2.13.82,2.95,0l8.95-8.94,6.86,6.86c.82.81,2.13.81,2.95,0l11.03-11.03v3.3c0,.55.22,1.08.61,1.47.39.39.92.61,1.47.61s1.08-.22,1.47-.61.61-.92.61-1.47v-8.33c0-1.15-.93-2.09-2.08-2.09h-8.34Z"/>
</svg>