<?xml version="1.0" encoding="UTF-8"?>
<svg id="Layer_1" data-name="Layer 1" xmlns="http://www.w3.org/2000/svg" viewBox="0 0 84.38 84.38">
  <path d="M42.19,0C18.93,0,0,18.93,0,42.19s18.93,42.19,42.19,42.19,42.19-18.93,42.19-42.19S65.45,0,42.19,0ZM42.19,46.88c-7.75,0-14.06-6.31-14.06-14.06s6.31-14.06,14.06-14.06,14.06,6.31,14.06,14.06-6.31,14.06-14.06,14.06ZM42.19,81.25c-10.9,0-20.77-4.5-27.86-11.72,4.25-11.71,15.32-19.53,27.86-19.53s23.61,7.82,27.86,19.53c-7.09,7.23-16.96,11.72-27.86,11.72Z"/>
</svg>